<svg width="30" height="32" viewBox="0 0 30 32" fill="none" xmlns="http://www.w3.org/2000/svg">
  <path d="M0.953125 16.1828V8.05408C0.953125 3.57447 5.81883 0.772941 9.71183 3.01701L16.7768 7.08137L23.8823 11.172C27.7618 13.4026 27.7618 18.9758 23.8823 21.2064L16.7768 25.297L9.6713 29.3877C5.79252 31.6182 0.953125 28.8316 0.953125 24.3705V16.1828Z" fill="url(#paint0_linear_7843_9730)"/>
  <path d="M8.66696 24.1406L10.9068 8.9953C11.0063 8.30202 11.113 7.61586 11.2623 6.92899C11.3855 6.35339 11.4215 5.76254 11.3689 5.17625C11.1158 2.41027 8.86961 0.204598 6.10719 0.0175919C5.32695 -0.0365867 4.54393 0.0704703 3.80687 0.332094C3.06982 0.593718 2.39452 1.0043 1.82306 1.53828C1.2516 2.07225 0.796208 2.71818 0.485252 3.43581C0.174296 4.15345 0.0144362 4.92743 0.0156317 5.70954L0.0760691 27.8751C0.0743704 28.9427 0.496807 29.9673 1.25047 30.7235C2.00413 31.4797 3.02729 31.9055 4.09492 31.9074C9.91983 32.7813 13.399 27.2735 13.399 27.2735C13.3727 27.2863 13.3528 27.2998 13.3279 27.3133C11.0732 28.6458 8.28086 26.7374 8.66696 24.1406Z" fill="url(#paint1_linear_7843_9730)"/>
  <path d="M20.491 7.25781C20.491 7.25781 24.236 9.13711 18.4844 25.3896L27.1286 20.8175C30.8076 18.8714 30.9683 13.6395 27.4087 11.4736L20.491 7.25781Z" fill="url(#paint2_linear_7843_9730)"/>
  <path d="M11.3796 3.77835C11.1727 3.47828 10.9864 3.16542 10.8001 2.84545C10.6139 2.53323 10.3997 2.2386 10.1602 1.96517C9.57487 1.29925 8.84428 0.776815 8.02488 0.438253C7.20548 0.0996917 6.3192 -0.0459336 5.43455 0.0126314C2.55551 0.192527 0.21616 2.51837 0.0149332 5.40452C-0.00497772 5.6753 -0.00497772 5.94717 0.0149332 6.21796V12.2363L0.321395 11.2294C0.384865 11.019 0.500976 10.8283 0.65874 10.6754C0.816503 10.5224 1.0107 10.4122 1.22294 10.3552C1.43518 10.2983 1.65845 10.2964 1.87161 10.3499C2.08476 10.4033 2.28075 10.5102 2.44103 10.6606L17.1249 24.8162C17.4459 25.1238 17.8589 25.3178 18.3007 25.3684C18.7425 25.419 19.1886 25.3234 19.5709 25.0963L23.9695 22.4569L11.3796 3.77835Z" fill="#E21622"/>
  <path d="M16.6328 7.03052C16.6328 7.03052 19.0255 5.91062 20.4988 7.25734C20.4988 7.25734 21.5383 8.02385 21.6251 9.92307L16.6328 7.03052Z" fill="#AF191C"/>
  <defs>
  <linearGradient id="paint0_linear_7843_9730" x1="2.14556" y1="27.0007" x2="18.1086" y2="6.74149" gradientUnits="userSpaceOnUse">
  <stop stop-color="#3B3A3A"/>
  <stop offset="1" stop-color="#111111"/>
  </linearGradient>
  <linearGradient id="paint1_linear_7843_9730" x1="6.71087" y1="15.1281" x2="6.64403" y2="29.3284" gradientUnits="userSpaceOnUse">
  <stop stop-color="#AF191C"/>
  <stop offset="1" stop-color="#E21622"/>
  </linearGradient>
  <linearGradient id="paint2_linear_7843_9730" x1="19.5936" y1="20.2089" x2="26.4325" y2="10.9325" gradientUnits="userSpaceOnUse">
  <stop stop-color="#AF191C"/>
  <stop offset="1" stop-color="#E21622"/>
  </linearGradient>
  </defs>
  </svg>
  